HIERARCHY
ROOT root
{
	OFFSET	0	13.1	24.9
	CHANNELS 6  Xposition Yposition Zposition Xrotation Yrotation Zrotation
	JOINT spine_1
	{
		OFFSET	0	9.99999	0
		CHANNELS 3  Xrotation Yrotation Zrotation
		JOINT spine_2
		{
			OFFSET	0	112	-10
			CHANNELS 3  Xrotation Yrotation Zrotation
			JOINT spine_3
			{
				OFFSET	0	206.5	19.3
				CHANNELS 3  Xrotation Yrotation Zrotation
				JOINT spine_4
				{
					OFFSET	0	110.4	14.6
					CHANNELS 3  Xrotation Yrotation Zrotation
					JOINT neck_1
					{
						OFFSET	0	71.8	-50.3
						CHANNELS 3  Xrotation Yrotation Zrotation
						JOINT neck_2
						{
							OFFSET	0	86.2	-25.8
							CHANNELS 3  Xrotation Yrotation Zrotation
							JOINT head_ee
							{
								OFFSET	0	179.8	-8.7
								CHANNELS 3  Xrotation Yrotation Zrotation
								End Site
								{
									OFFSET	1	0	0
								}
							}
						}
					}
					JOINT left_clavicle
					{
						OFFSET	-43.2	22.4	-70.8
						CHANNELS 3  Xrotation Yrotation Zrotation
						JOINT left_shoulder
						{
							OFFSET	-93.9	-5.79999	48.7
							CHANNELS 3  Xrotation Yrotation Zrotation
							JOINT left_elbow
							{
								OFFSET	-291.4	-30.8	15.2
								CHANNELS 3  Xrotation Yrotation Zrotation
								JOINT left_lowarm_twist
								{
									OFFSET	-110.7	-3.89999	13.6
									CHANNELS 3  Xrotation Yrotation Zrotation
									JOINT left_hand
									{
										OFFSET	-110.7	-3.89999	13.6
										CHANNELS 3  Xrotation Yrotation Zrotation
										JOINT left_ee
										{
											OFFSET	-80.8	-5.10001	12.1
											CHANNELS 3  Xrotation Yrotation Zrotation
											End Site
											{
												OFFSET	1	0	0
											}
										}
									}
								}
							}
						}
					}
					JOINT right_clavicle
					{
						OFFSET	43.2	22.4	-70.8
						CHANNELS 3  Xrotation Yrotation Zrotation
						JOINT right_shoulder
						{
							OFFSET	93.9	-5.79999	48.7
							CHANNELS 3  Xrotation Yrotation Zrotation
							JOINT right_elbow
							{
								OFFSET	291.4	-30.8	15.2
								CHANNELS 3  Xrotation Yrotation Zrotation
								JOINT right_lowarm_twist
								{
									OFFSET	110.7	-3.89999	13.6
									CHANNELS 3  Xrotation Yrotation Zrotation
									JOINT right_hand
									{
										OFFSET	110.7	-3.89999	13.6
										CHANNELS 3  Xrotation Yrotation Zrotation
										JOINT right_ee
										{
											OFFSET	80.8	-5.10001	12.1
											CHANNELS 3  Xrotation Yrotation Zrotation
											End Site
											{
												OFFSET	1	0	0
											}
										}
									}
								}
							}
						}
					}
				}
			}
		}
	}
	JOINT left_hip
	{
		OFFSET	-82.8	-127.5	0.300001
		CHANNELS 3  Xrotation Yrotation Zrotation
		JOINT left_knee
		{
			OFFSET	-28.2	-396.7	2.2
			CHANNELS 3  Xrotation Yrotation Zrotation
			JOINT left_ankle
			{
				OFFSET	-11.7	-411.3	35.4
				CHANNELS 3  Xrotation Yrotation Zrotation
				JOINT left_toes
				{
					OFFSET	0	-60	-88.6
					CHANNELS 3  Xrotation Yrotation Zrotation
					JOINT left_foot_ee
					{
						OFFSET	-22.5	-16.5	-42.2
						CHANNELS 3  Xrotation Yrotation Zrotation
						End Site
						{
							OFFSET	1	0	0
						}
					}
				}
			}
		}
	}
	JOINT right_hip
	{
		OFFSET	82.8	-127.5	0.300001
		CHANNELS 3  Xrotation Yrotation Zrotation
		JOINT right_knee
		{
			OFFSET	28.2	-396.7	2.2
			CHANNELS 3  Xrotation Yrotation Zrotation
			JOINT right_ankle
			{
				OFFSET	11.7	-411.3	35.4
				CHANNELS 3  Xrotation Yrotation Zrotation
				JOINT right_toes
				{
					OFFSET	0	-60	-88.6
					CHANNELS 3  Xrotation Yrotation Zrotation
					JOINT right_foot_ee
					{
						OFFSET	22.5	-16.5	-42.2
						CHANNELS 3  Xrotation Yrotation Zrotation
						End Site
						{
							OFFSET	1	0	0
						}
					}
				}
			}
		}
	}
}
MOTION
Frames: 16
Frame Time: 0.02
3123.99 737.403 -522.946 -161.757 -75.5695 -169.184 3.89217 0.809137 2.95601 3.89682 0.619486 3.00145 3.92675 0.185215 3.05906 3.91431 0.665794 2.99153 -15.3032 4.80024 -6.28897 -15.3428 12.8868 -4.31875 -0.0 0.0 -0.0 -5.16493 16.1327 -6.29466 -24.4885 -36.5046 71.3872 0.380685 -10.6796 0.0355821 -17.1588 -0.909688 1.98838 1.83801 5.53637 14.524 -0.0 0.0 -0.0 8.79288 5.10041 -17.2665 -8.08749 26.5699 -63.336 3.10538 56.9615 -1.68502 5.59868 -0.163345 0.69621 2.33939 -13.8811 -20.8238 0.0 0.0 0.0 21.1602 8.73636 -1.85143 -43.517 -0.705542 6.48347 14.3049 13.7365 -2.01275 -39.6089 0.0 0.0 -0.0 0.0 -0.0 17.5488 10.1146 -0.488652 -4.39382 -0.155806 -0.656154 8.74645 11.5589 1.3246 -24.509 0.0 0.0 0.0 0.0 0.0 
3132.43 739.385 -521.739 -158.893 -75.8777 -166.34 3.9813 0.59452 3.07172 3.98646 0.39795 3.10328 4.00505 -0.04463 3.12835 3.99167 0.449754 3.09621 -15.7188 4.6367 -6.60112 -15.7514 12.72 -4.62546 -0.0 0.0 -0.0 -4.93012 16.1337 -5.91623 -24.7997 -36.1069 71.1037 0.359678 -10.1028 0.031793 -16.792 -0.884129 1.94898 1.89806 5.74471 15.01 -0.0 0.0 -0.0 8.24112 5.73311 -16.1073 -7.24854 27.2062 -64.7122 3.18548 57.6243 -1.75243 5.26626 -0.155554 0.654461 2.18177 -13.8036 -19.7385 0.0 0.0 0.0 22.3925 9.11868 -2.75274 -42.6455 -0.643596 6.36461 16.8996 10.4302 -2.34252 -39.3867 0.0 0.0 -0.0 0.0 -0.0 16.9334 9.13833 -0.344255 -1.87813 -0.0727622 -0.27903 9.00816 10.1903 1.35187 -24.7101 0.0 0.0 0.0 0.0 0.0 
3142.08 743.377 -521.831 -154.72 -77.7485 -161.838 4.002 0.377994 3.13844 4.00746 0.177623 3.15611 4.01406 -0.270055 3.14955 4.00029 0.230493 3.15269 -15.9977 4.70689 -6.82391 -16.0335 12.957 -4.78096 -0.0 0.0 -0.0 -5.06609 16.3087 -6.09118 -24.9424 -35.9228 70.7183 0.398738 -11.1736 0.0390041 -16.678 -0.876235 1.9367 1.89024 5.9205 15.0224 -0.0 0.0 -0.0 7.99208 6.05114 -15.5827 -7.31831 27.6431 -65.7196 3.18958 57.6575 -1.75589 5.28976 -0.156113 0.657411 2.05333 -13.5621 -18.8013 0.0 0.0 0.0 22.7793 9.44097 -3.17485 -42.2989 -0.619462 6.31707 18.962 9.28961 -2.60291 -39.1273 0.0 0.0 -0.0 0.0 -0.0 16.5124 8.41886 -0.504263 -3.45397 -0.126721 -0.514849 9.52167 9.22507 1.41858 -24.7031 0.0 0.0 0.0 0.0 0.0 
3155.39 741.16 -521.144 -149.421 -79.9252 -156.228 4.11518 0.219839 3.27147 4.12113 0.0113353 3.27882 4.11811 -0.446398 3.24835 4.1034 0.0719348 3.27806 -16.2901 4.94103 -7.09869 -16.3372 13.5341 -4.92384 -0.0 0.0 -0.0 -5.07068 16.1362 -6.14186 -25.3433 -36.0175 69.8509 0.453518 -12.662 0.0503175 -16.8662 -0.88928 1.95696 1.83168 6.9639 15.0121 -0.0 0.0 -0.0 7.79872 6.17798 -15.1766 -8.01925 25.9312 -65.5147 3.2272 57.9601 -1.78772 6.9317 -0.192149 0.864053 1.8263 -12.3829 -16.8974 0.0 0.0 0.0 22.8263 9.55514 -3.31077 -35.6176 -0.211752 5.37508 21.9712 7.80935 -2.97239 -38.4324 0.0 0.0 -0.0 0.0 -0.0 16.2379 8.03863 -0.103394 -6.6467 -0.216049 -0.996623 13.3454 5.3601 1.92325 -23.1854 0.0 0.0 0.0 0.0 0.0 
3160.66 742.308 -519.09 -137.828 -82.3521 -144.106 4.22788 0.00583885 3.17643 4.23347 -0.196194 3.17037 4.219 -0.631545 3.11308 4.2055 -0.132226 3.17368 -16.2982 4.34207 -7.79111 -16.2956 12.783 -5.79373 -0.0 0.0 -0.0 -5.02874 15.5734 -6.21467 -24.8493 -36.2495 69.5027 0.538556 -14.9379 0.0706061 -17.4521 -0.930305 2.01976 1.94899 8.31478 16.2975 -0.0 0.0 -0.0 7.56501 4.86115 -14.7091 -8.69936 24.8134 -65.9644 3.25406 58.1731 -1.81052 6.67443 -0.186895 0.831608 1.50595 -11.1992 -14.3668 0.0 0.0 0.0 21.9817 11.1067 -3.04151 -25.9583 0.177536 3.94564 22.6921 6.29224 -3.05894 -38.3825 0.0 0.0 -0.0 0.0 -0.0 17.2915 7.8432 -0.485022 -8.78167 -0.260739 -1.32118 14.571 2.36539 2.06718 -23.9155 0.0 0.0 0.0 0.0 0.0 
3168.19 738.262 -518.163 -144.068 -81.3869 -150.428 4.37042 0.254325 3.10162 4.37577 0.0565433 3.11151 4.37518 -0.364293 3.09064 4.36188 0.128145 3.10938 -15.7233 4.41057 -8.09084 -15.7044 13.155 -6.11605 -0.0 0.0 -0.0 -4.9828 15.3677 -6.1909 -25.0631 -36.2876 68.9101 0.601051 -16.5807 0.0875811 -17.5806 -0.939396 2.03348 2.01027 8.15127 16.6541 -0.0 0.0 -0.0 7.50955 4.85855 -14.5945 -9.20725 24.1897 -66.2819 3.34335 58.8631 -1.88667 6.65794 -0.186553 0.829529 1.45351 -9.77172 -13.5076 0.0 0.0 0.0 20.8573 12.0159 -2.82113 -21.1153 0.280716 3.20983 24.3322 7.34024 -3.25313 -38.5388 0.0 0.0 -0.0 0.0 -0.0 17.9527 7.66245 -0.963812 -10.7408 -0.291082 -1.62026 16.4015 0.686033 2.29796 -23.0657 0.0 0.0 0.0 0.0 0.0 
3179.09 740.928 -515.754 -132.708 -82.2088 -138.48 4.4897 -0.125305 3.08853 4.49494 -0.321488 3.07432 4.47396 -0.729159 3.00392 4.46146 -0.245832 3.08129 -16.3772 4.32097 -7.62945 -16.3795 12.641 -5.64011 -0.0 0.0 -0.0 -4.75717 14.9827 -5.91596 -25.3349 -36.3151 68.2446 0.653503 -17.9382 0.103145 -17.8754 -0.96035 2.06487 2.06524 8.64557 17.2039 -0.0 0.0 -0.0 7.31583 3.6412 -14.2105 -10.4561 23.1849 -66.8904 3.40795 59.3456 -1.9421 6.75684 -0.188593 0.841998 1.37108 -9.10471 -12.7179 0.0 0.0 0.0 19.879 12.6084 -2.73783 -16.4524 0.321008 2.49573 23.2016 4.64375 -3.12183 -38.0557 0.0 0.0 -0.0 0.0 -0.0 18.4274 7.40563 -1.71396 -11.5529 -0.300658 -1.7445 15.6894 -0.819804 2.19749 -23.9598 0.0 0.0 0.0 0.0 0.0 
3190.52 740.369 -516.673 -141.87 -80.8685 -147.812 4.66282 0.584548 2.93716 4.66753 0.396549 2.96836 4.68444 0.0086022 2.9947 4.67225 0.481241 2.95582 -15.9367 3.67853 -8.42625 -15.8763 11.9233 -6.66785 -0.0 0.0 -0.0 -4.91694 15.5411 -6.04094 -24.6809 -36.1119 67.8391 0.690699 -18.8885 0.114894 -18.0385 -0.972014 2.08219 1.97429 9.31472 16.825 -0.0 0.0 -0.0 7.18247 4.23198 -13.9299 -12.4247 23.8722 -67.0299 3.37217 59.08 -1.91137 6.81464 -0.189776 0.849287 1.28834 -8.50733 -11.9489 0.0 0.0 0.0 19.8903 13.1494 -2.69886 -17.261 0.318189 2.61975 19.925 4.82548 -2.72358 -38.7321 0.0 0.0 -0.0 0.0 -0.0 18.0919 7.31524 -1.72167 -12.7849 -0.311821 -1.93319 16.4689 -1.89696 2.29437 -22.7125 0.0 0.0 0.0 0.0 0.0 
3198.32 738.77 -516.46 -142.839 -79.0825 -148.861 4.76817 0.496392 2.84271 4.77261 0.314573 2.86851 4.7848 -0.0547857 2.88517 4.77341 0.401371 2.85766 -14.2123 4.00905 -7.39874 -14.1709 12.144 -5.75705 -0.0 0.0 -0.0 -4.70998 16.0429 -5.58429 -24.6179 -36.2283 67.8907 0.690957 -18.8951 0.114978 -18.3638 -0.995434 2.11665 2.22275 9.30033 18.5069 -0.0 0.0 -0.0 6.78508 3.22109 -13.1348 -11.6655 23.0517 -69.1374 3.4128 59.3813 -1.94628 6.21275 -0.177099 0.773446 1.30235 -6.67945 -11.3539 0.0 0.0 0.0 19.3516 13.4534 -2.36586 -15.6105 0.322084 2.36656 19.6971 5.51923 -2.69416 -36.4184 0.0 0.0 -0.0 0.0 -0.0 19.0544 7.35089 -2.04597 -13.4251 -0.316018 -2.03132 19.1499 -1.13055 2.63949 -23.2154 0.0 0.0 0.0 0.0 0.0 
3214.94 735.622 -510.893 -148.135 -77.2319 -154.083 4.96789 0.840167 2.7471 4.97184 0.66373 2.79495 5.00076 0.312125 2.85562 4.99018 0.759027 2.7706 -15.642 4.32133 -7.54083 -15.634 12.6726 -5.63432 -0.0 0.0 -0.0 -4.51677 15.2236 -5.46621 -25.2211 -35.3724 67.7452 0.650916 -17.8717 0.102349 -18.5449 -1.00855 2.13577 2.33841 9.48499 19.3622 -0.0 0.0 -0.0 6.55635 3.09228 -12.6736 -12.5232 24.1308 -70.909 3.19835 57.7285 -1.7633 6.20357 -0.1769 0.772291 1.29083 -5.46289 -10.8118 0.0 0.0 0.0 19.2547 14.0153 -2.97611 -19.9287 0.296481 3.02845 21.4149 8.80067 -2.90599 -34.6016 0.0 0.0 -0.0 0.0 -0.0 17.568 7.50758 -2.61333 -12.9244 -0.312829 -1.95457 21.7057 0.364862 2.96405 -21.9078 0.0 0.0 0.0 0.0 0.0 
3230.81 735.726 -509.498 -151.543 -76.0293 -157.825 5.12024 0.836043 2.80653 5.12438 0.655837 2.85399 5.15323 0.304726 2.91243 5.1422 0.760682 2.82787 -15.4152 4.13258 -6.73471 -15.417 11.8628 -4.95884 -0.0 0.0 -0.0 -4.50332 15.8185 -5.30496 -25.8109 -35.292 67.3923 0.614882 -16.9406 0.0915697 -18.6899 -1.0191 2.15105 2.60389 9.39307 21.1638 -0.0 0.0 -0.0 6.27457 3.4231 -12.0964 -14.0704 24.4161 -72.3566 2.99733 56.0285 -1.59492 6.08079 -0.174214 0.756837 1.22426 -5.03842 -10.203 0.0 0.0 0.0 18.4357 14.3966 -2.69475 -21.8274 0.26945 3.31853 18.8899 13.3678 -2.60711 -33.5599 0.0 0.0 -0.0 0.0 -0.0 16.6523 6.84691 -2.34971 -13.7461 -0.31771 -2.08055 23.6743 1.34557 3.20769 -21.1111 0.0 0.0 0.0 0.0 0.0 
3236.79 736.579 -506.926 -154.744 -74.9036 -160.979 5.25372 0.788305 2.77916 5.25781 0.609935 2.82364 5.28395 0.269352 2.87614 5.27312 0.720026 2.79761 -15.7299 4.43992 -5.98487 -15.767 11.9839 -4.11014 -0.0 0.0 -0.0 -4.36678 16.1899 -4.99917 -25.7577 -34.7177 66.3196 0.593014 -16.3709 0.0853016 -18.7783 -1.02555 2.16035 2.76375 9.45407 22.3005 -0.0 0.0 -0.0 6.21567 5.31083 -11.9232 -15.6723 25.9682 -73.1252 2.86103 54.7835 -1.48272 6.28243 -0.178608 0.78222 1.29064 -4.6927 -10.5129 0.0 0.0 0.0 18.133 14.2268 -3.45837 -23.3871 0.240065 3.55605 15.6372 16.1524 -2.20097 -33.2935 0.0 0.0 -0.0 0.0 -0.0 15.861 6.33332 -2.42171 -13.7933 -0.317935 -2.08778 23.4834 2.38531 3.1938 -20.4115 0.0 0.0 0.0 0.0 0.0 
3245.51 733.888 -504.698 -154.329 -74.5812 -160.46 5.54303 0.510807 2.77971 5.54727 0.332963 2.80655 5.55924 0.00963294 2.8262 5.54839 0.455682 2.78927 -13.6742 4.55895 -5.66572 -13.6886 12.1769 -3.98439 -0.0 0.0 -0.0 -4.65234 16.4404 -5.39641 -25.3078 -34.7547 65.6264 0.658006 -18.0538 0.104536 -18.7407 -1.0228 2.15639 3.33971 9.76886 26.5136 -0.0 0.0 -0.0 5.95928 5.01876 -11.4088 -15.9912 28.2024 -73.9526 2.60321 52.199 -1.27544 6.87292 -0.190961 0.856638 1.08274 -6.01189 -9.63734 0.0 0.0 0.0 16.7396 13.5361 -3.36682 -22.888 0.250172 3.48013 21.5642 15.2518 -2.95332 -31.8273 0.0 0.0 -0.0 0.0 -0.0 15.283 7.49704 -2.53418 -13.0755 -0.313862 -1.97772 23.7442 6.61656 3.27246 -18.1082 0.0 0.0 0.0 0.0 0.0 
3251.91 731.075 -504.312 -155.994 -73.2635 -161.618 5.56302 0.538483 2.80396 5.56732 0.359042 2.83251 5.58064 0.0336689 2.85496 5.56959 0.483953 2.81388 -14.3608 4.34208 -3.80128 -14.4092 10.5874 -2.20839 -0.0 0.0 -0.0 -4.48764 16.6087 -5.09407 -25.3244 -34.894 64.8946 0.720727 -19.6479 0.124803 -19.001 -1.04186 2.18374 3.22975 9.50109 25.6294 -0.0 0.0 -0.0 5.99648 5.41999 -11.4708 -17.2459 28.8 -75.0685 2.33804 49.1852 -1.07019 7.78496 -0.208533 0.971816 1.20335 -5.86219 -10.3818 0.0 0.0 0.0 16.108 12.6119 -3.4573 -22.7724 0.252417 3.46254 21.762 18.8134 -3.01064 -31.4726 0.0 0.0 -0.0 0.0 -0.0 14.8825 6.26824 -3.5232 -11.7776 -0.302996 -1.77889 24.2289 6.07284 3.32309 -16.4802 0.0 0.0 0.0 0.0 0.0 
3261.11 727.352 -504.178 -156.979 -71.66 -162.526 5.80463 0.469204 2.6975 5.80863 0.296669 2.72187 5.81834 -0.00438013 2.73797 5.80814 0.427926 2.70435 -14.7944 4.21935 -1.57902 -14.8558 9.00773 -0.105951 -0.0 0.0 -0.0 -4.45057 16.7372 -5.00503 -25.1418 -34.9031 63.6232 0.788336 -21.3315 0.148471 -19.2706 -1.06173 2.21198 3.35637 9.68488 26.6073 -0.0 0.0 -0.0 5.92921 6.02274 -11.3107 -18.1246 29.4272 -75.4959 2.18658 47.2801 -0.957207 8.26341 -0.217017 1.03234 1.1839 -6.31731 -10.4273 0.0 0.0 0.0 15.0231 13.1457 -3.60745 -21.9382 0.267577 3.33543 24.7957 18.9529 -3.38404 -30.8471 0.0 0.0 -0.0 0.0 -0.0 14.6961 6.33549 -3.61196 -12.4464 -0.309158 -1.88132 27.134 7.39553 3.68029 -16.0249 0.0 0.0 0.0 0.0 0.0 
3268.07 729.151 -503.212 -156.468 -71.0837 -161.849 5.92976 0.351145 2.60035 5.9335 0.185024 2.6174 5.93777 -0.0985071 2.62208 5.92831 0.316695 2.60476 -14.1871 4.47801 -1.45547 -14.2499 9.42991 0.0462007 -0.0 0.0 -0.0 -4.31914 16.7836 -4.78608 -24.5379 -34.953 62.7041 0.834829 -22.4674 0.165813 -19.6173 -1.08748 2.24816 3.35927 10.2389 26.8086 -0.0 0.0 -0.0 5.89201 6.44245 -11.2178 -18.9161 30.1558 -75.766 2.01059 44.8797 -0.83041 8.57049 -0.222196 1.07123 1.005 -6.574 -9.33946 0.0 0.0 0.0 14.1377 12.9747 -3.32388 -20.9941 0.282497 3.19133 26.0415 18.7465 -3.52973 -31.0638 0.0 0.0 -0.0 0.0 -0.0 14.3416 6.37698 -4.07485 -11.6214 -0.301385 -1.75498 26.9112 6.06875 3.63519 -15.3433 0.0 0.0 0.0 0.0 0.0 
